<svg width="1280" height="640" viewBox="0 0 1280 640" xmlns="http://www.w3.org/2000/svg">
  <rect width="1280" height="640" fill="#0F0F0F"/>

  <!-- subtle grid decoration top-right -->
  <circle cx="980" cy="120" r="10" fill="#1E1E1E"/>
  <circle cx="1040" cy="120" r="10" fill="#1E1E1E"/>
  <circle cx="1100" cy="120" r="10" fill="#1E1E1E"/>
  <circle cx="1160" cy="120" r="10" fill="#1E1E1E"/>
  <circle cx="980" cy="180" r="10" fill="#1E1E1E"/>
  <circle cx="1040" cy="180" r="10" fill="#1E1E1E"/>
  <circle cx="1100" cy="180" r="10" fill="#FFFFFF" fill-opacity="0.15"/>
  <circle cx="1160" cy="180" r="10" fill="#1E1E1E"/>
  <circle cx="980" cy="240" r="10" fill="#1E1E1E"/>
  <circle cx="1040" cy="240" r="10" fill="#1E1E1E"/>
  <circle cx="1100" cy="240" r="10" fill="#1E1E1E"/>
  <circle cx="1160" cy="240" r="10" fill="#1E1E1E"/>

  <!-- decoration bottom-left -->
  <circle cx="120" cy="420" r="10" fill="#1E1E1E"/>
  <circle cx="180" cy="420" r="10" fill="#1E1E1E"/>
  <circle cx="240" cy="420" r="10" fill="#1E1E1E"/>
  <circle cx="120" cy="480" r="10" fill="#1E1E1E"/>
  <circle cx="180" cy="480" r="10" fill="#FFFFFF" fill-opacity="0.12"/>
  <circle cx="240" cy="480" r="10" fill="#1E1E1E"/>
  <circle cx="120" cy="540" r="10" fill="#1E1E1E"/>
  <circle cx="180" cy="540" r="10" fill="#1E1E1E"/>
  <circle cx="240" cy="540" r="10" fill="#1E1E1E"/>

  <!-- main text -->
  <text x="640" y="290" text-anchor="middle" font-family="'SF Pro Display', 'Helvetica Neue', Arial, sans-serif" font-size="96" font-weight="700" letter-spacing="-3" fill="#FFFFFF">beadly</text>
  <text x="640" y="370" text-anchor="middle" font-family="'SF Pro Text', 'Helvetica Neue', Arial, sans-serif" font-size="28" font-weight="400" fill="#888888" letter-spacing="2">your personal assistant</text>

  <!-- thin accent line -->
  <line x1="560" y1="410" x2="720" y2="410" stroke="#333333" stroke-width="1"/>
</svg>
