<svg width="1280" height="480" viewBox="0 0 1280 480" xmlns="http://www.w3.org/2000/svg">
  <rect width="1280" height="480" fill="#F5F5F0"/>

  <!-- dot grid decoration -->
  <circle cx="960" cy="80" r="7" fill="#E0E0D8"/>
  <circle cx="1010" cy="80" r="7" fill="#E0E0D8"/>
  <circle cx="1060" cy="80" r="7" fill="#E0E0D8"/>
  <circle cx="1110" cy="80" r="7" fill="#E0E0D8"/>
  <circle cx="1160" cy="80" r="7" fill="#E0E0D8"/>
  <circle cx="960" cy="130" r="7" fill="#E0E0D8"/>
  <circle cx="1010" cy="130" r="7" fill="#C8C8C0"/>
  <circle cx="1060" cy="130" r="7" fill="#E0E0D8"/>
  <circle cx="1110" cy="130" r="7" fill="#E0E0D8"/>
  <circle cx="1160" cy="130" r="7" fill="#E0E0D8"/>
  <circle cx="960" cy="180" r="7" fill="#E0E0D8"/>
  <circle cx="1010" cy="180" r="7" fill="#E0E0D8"/>
  <circle cx="1060" cy="180" r="7" fill="#C8C8C0"/>
  <circle cx="1110" cy="180" r="7" fill="#E0E0D8"/>
  <circle cx="1160" cy="180" r="7" fill="#E0E0D8"/>

  <!-- bottom dots -->
  <circle cx="120" cy="380" r="7" fill="#E0E0D8"/>
  <circle cx="170" cy="380" r="7" fill="#E0E0D8"/>
  <circle cx="220" cy="380" r="7" fill="#E0E0D8"/>
  <circle cx="120" cy="430" r="7" fill="#E0E0D8"/>
  <circle cx="170" cy="430" r="7" fill="#C8C8C0"/>
  <circle cx="220" cy="430" r="7" fill="#E0E0D8"/>

  <!-- main heading -->
  <text x="640" y="220" text-anchor="middle" font-family="'SF Pro Display', 'Helvetica Neue', Arial, sans-serif" font-size="80" font-weight="700" letter-spacing="-3" fill="#0F0F0F">Open in Telegram</text>
  <text x="640" y="310" text-anchor="middle" font-family="'SF Pro Text', 'Helvetica Neue', Arial, sans-serif" font-size="26" font-weight="400" fill="#888888" letter-spacing="0.5">Start using beadly today</text>

  <!-- divider -->
  <line x1="580" y1="348" x2="700" y2="348" stroke="#CCCCCC" stroke-width="1"/>

  <!-- brand -->
  <text x="640" y="380" text-anchor="middle" font-family="'SF Pro Text', 'Helvetica Neue', Arial, sans-serif" font-size="18" font-weight="500" fill="#BBBBBB" letter-spacing="2">beadly</text>
</svg>
